<?xml version="1.0" encoding="UTF-8" standalone="no"?>
<!DOCTYPE svg PUBLIC "-//W3C//DTD SVG 1.1//EN"
 "http://www.w3.org/Graphics/SVG/1.1/DTD/svg11.dtd">
<!-- Generated by graphviz version 2.40.1 (20161225.0304)
 -->
<!-- Title: %3 Pages: 1 -->
<svg width="774pt" height="331pt"
 viewBox="0.00 0.00 774.19 330.96" xmlns="http://www.w3.org/2000/svg" xmlns:xlink="http://www.w3.org/1999/xlink">
<g id="graph0" class="graph" transform="scale(1 1) rotate(0) translate(4 326.9605)">
<title>%3</title>
<polygon fill="#ffffff" stroke="transparent" points="-4,4 -4,-326.9605 770.1909,-326.9605 770.1909,4 -4,4"/>
<!-- raw_data -->
<g id="node1" class="node">
<title>raw_data</title>
<g id="a_node1"><a xlink:href="/status/raw_data" xlink:title="raw_data&#10;op=read_csv">
<ellipse fill="none" stroke="#000000" cx="389.2168" cy="-296.0904" rx="62.4516" ry="26.7407"/>
<text text-anchor="middle" x="389.2168" y="-299.8904" font-family="Times,serif" font-size="14.00" fill="#000000">raw_data</text>
<text text-anchor="middle" x="389.2168" y="-284.8904" font-family="Times,serif" font-size="14.00" fill="#000000">op=read_csv</text>
</a>
</g>
</g>
<!-- dropna  -->
<g id="node2" class="node">
<title>dropna </title>
<g id="a_node2"><a xlink:href="/status/dropna " xlink:title="dropna &#10;op=dropna">
<ellipse fill="none" stroke="#000000" cx="389.2168" cy="-206.3503" rx="54.3945" ry="26.7407"/>
<text text-anchor="middle" x="389.2168" y="-210.1503" font-family="Times,serif" font-size="14.00" fill="#000000">dropna </text>
<text text-anchor="middle" x="389.2168" y="-195.1503" font-family="Times,serif" font-size="14.00" fill="#000000">op=dropna</text>
</a>
</g>
</g>
<!-- raw_data&#45;&gt;dropna  -->
<g id="edge1" class="edge">
<title>raw_data&#45;&gt;dropna </title>
<path fill="none" stroke="#000000" d="M389.2168,-269.1654C389.2168,-261.0905 389.2168,-252.0872 389.2168,-243.4763"/>
<polygon fill="#000000" stroke="#000000" points="392.7169,-243.2562 389.2168,-233.2563 385.7169,-243.2563 392.7169,-243.2562"/>
</g>
<!-- education -->
<g id="node3" class="node">
<title>education</title>
<g id="a_node3"><a xlink:href="/status/education" xlink:title="education&#10;op=OneHotEncoder">
<ellipse fill="none" stroke="#000000" cx="91.2168" cy="-116.6102" rx="91.4341" ry="26.7407"/>
<text text-anchor="middle" x="91.2168" y="-120.4102" font-family="Times,serif" font-size="14.00" fill="#000000">education</text>
<text text-anchor="middle" x="91.2168" y="-105.4102" font-family="Times,serif" font-size="14.00" fill="#000000">op=OneHotEncoder</text>
</a>
</g>
</g>
<!-- dropna &#45;&gt;education -->
<g id="edge2" class="edge">
<title>dropna &#45;&gt;education</title>
<path fill="none" stroke="#000000" d="M342.6543,-192.3284C295.0916,-178.0053 220.5375,-155.554 164.944,-138.8125"/>
<polygon fill="#000000" stroke="#000000" points="165.7298,-135.3939 155.1453,-135.8617 163.7113,-142.0966 165.7298,-135.3939"/>
</g>
<!-- workclass -->
<g id="node4" class="node">
<title>workclass</title>
<g id="a_node4"><a xlink:href="/status/workclass" xlink:title="workclass&#10;op=OneHotEncoder">
<ellipse fill="none" stroke="#000000" cx="291.2168" cy="-116.6102" rx="91.4341" ry="26.7407"/>
<text text-anchor="middle" x="291.2168" y="-120.4102" font-family="Times,serif" font-size="14.00" fill="#000000">workclass</text>
<text text-anchor="middle" x="291.2168" y="-105.4102" font-family="Times,serif" font-size="14.00" fill="#000000">op=OneHotEncoder</text>
</a>
</g>
</g>
<!-- dropna &#45;&gt;workclass -->
<g id="edge3" class="edge">
<title>dropna &#45;&gt;workclass</title>
<path fill="none" stroke="#000000" d="M363.2119,-182.5372C352.1411,-172.3995 339.045,-160.4072 327.0779,-149.4487"/>
<polygon fill="#000000" stroke="#000000" points="329.1482,-146.5988 319.4094,-142.4266 324.4207,-151.7613 329.1482,-146.5988"/>
</g>
<!-- age -->
<g id="node5" class="node">
<title>age</title>
<g id="a_node5"><a xlink:href="/status/age" xlink:title="age&#10;op=StandardScaler">
<ellipse fill="none" stroke="#000000" cx="487.2168" cy="-116.6102" rx="86.9483" ry="26.7407"/>
<text text-anchor="middle" x="487.2168" y="-120.4102" font-family="Times,serif" font-size="14.00" fill="#000000">age</text>
<text text-anchor="middle" x="487.2168" y="-105.4102" font-family="Times,serif" font-size="14.00" fill="#000000">op=StandardScaler</text>
</a>
</g>
</g>
<!-- dropna &#45;&gt;age -->
<g id="edge4" class="edge">
<title>dropna &#45;&gt;age</title>
<path fill="none" stroke="#000000" d="M415.2217,-182.5372C426.3855,-172.3143 439.6088,-160.2055 451.6571,-149.1727"/>
<polygon fill="#000000" stroke="#000000" points="454.3602,-151.4433 459.3715,-142.1085 449.6327,-146.2807 454.3602,-151.4433"/>
</g>
<!-- hours&#45;per&#45;week -->
<g id="node6" class="node">
<title>hours&#45;per&#45;week</title>
<g id="a_node6"><a xlink:href="/status/hours-per-week" xlink:title="hours&#45;per&#45;week&#10;op=StandardScaler">
<ellipse fill="none" stroke="#000000" cx="679.2168" cy="-116.6102" rx="86.9483" ry="26.7407"/>
<text text-anchor="middle" x="679.2168" y="-120.4102" font-family="Times,serif" font-size="14.00" fill="#000000">hours&#45;per&#45;week</text>
<text text-anchor="middle" x="679.2168" y="-105.4102" font-family="Times,serif" font-size="14.00" fill="#000000">op=StandardScaler</text>
</a>
</g>
</g>
<!-- dropna &#45;&gt;hours&#45;per&#45;week -->
<g id="edge5" class="edge">
<title>dropna &#45;&gt;hours&#45;per&#45;week</title>
<path fill="none" stroke="#000000" d="M435.4888,-192.0315C481.931,-177.66 554.1066,-155.3254 607.8789,-138.6856"/>
<polygon fill="#000000" stroke="#000000" points="609.1764,-141.9479 617.6948,-135.6481 607.107,-135.2607 609.1764,-141.9479"/>
</g>
<!-- classifier -->
<g id="node7" class="node">
<title>classifier</title>
<g id="a_node7"><a xlink:href="/status/classifier" xlink:title="classifier&#10;op=DecisionTreeClassifier">
<ellipse fill="none" stroke="#000000" cx="389.2168" cy="-26.8701" rx="118.1737" ry="26.7407"/>
<text text-anchor="middle" x="389.2168" y="-30.6701" font-family="Times,serif" font-size="14.00" fill="#000000">classifier</text>
<text text-anchor="middle" x="389.2168" y="-15.6701" font-family="Times,serif" font-size="14.00" fill="#000000">op=DecisionTreeClassifier</text>
</a>
</g>
</g>
<!-- education&#45;&gt;classifier -->
<g id="edge6" class="edge">
<title>education&#45;&gt;classifier</title>
<path fill="none" stroke="#000000" d="M155.1453,-97.3587C199.8645,-83.8919 259.9587,-65.795 308.0595,-51.3099"/>
<polygon fill="#000000" stroke="#000000" points="309.2553,-54.6051 317.8213,-48.3702 307.2368,-47.9024 309.2553,-54.6051"/>
</g>
<!-- workclass&#45;&gt;classifier -->
<g id="edge7" class="edge">
<title>workclass&#45;&gt;classifier</title>
<path fill="none" stroke="#000000" d="M319.2996,-90.8943C329.7774,-81.2996 341.8261,-70.2665 352.9372,-60.0918"/>
<polygon fill="#000000" stroke="#000000" points="355.4375,-62.548 360.4489,-53.2133 350.7101,-57.3855 355.4375,-62.548"/>
</g>
<!-- age&#45;&gt;classifier -->
<g id="edge8" class="edge">
<title>age&#45;&gt;classifier</title>
<path fill="none" stroke="#000000" d="M459.396,-91.1343C448.8211,-81.4507 436.6166,-70.2748 425.3807,-59.986"/>
<polygon fill="#000000" stroke="#000000" points="427.5276,-57.2061 417.7888,-53.0339 422.8001,-62.3686 427.5276,-57.2061"/>
</g>
<!-- hours&#45;per&#45;week&#45;&gt;classifier -->
<g id="edge9" class="edge">
<title>hours&#45;per&#45;week&#45;&gt;classifier</title>
<path fill="none" stroke="#000000" d="M617.7152,-97.5786C574.4082,-84.1773 516.0267,-66.1112 469.1169,-51.595"/>
<polygon fill="#000000" stroke="#000000" points="469.8783,-48.167 459.2906,-48.5543 467.8089,-54.8541 469.8783,-48.167"/>
</g>
</g>
</svg>
